<svg width="160" height="160" viewBox="0 0 160 160" xmlns="http://www.w3.org/2000/svg" role="img" aria-label="IT'S Magazine editorial assistant avatar">
  <defs>
    <radialGradient id="goldGlow" cx="50%" cy="38%" r="62%">
      <stop offset="0%" stop-color="#f2d879" stop-opacity="0.38"/>
      <stop offset="48%" stop-color="#d4af37" stop-opacity="0.14"/>
      <stop offset="100%" stop-color="#050505" stop-opacity="0"/>
    </radialGradient>
    <linearGradient id="goldStroke" x1="18" y1="18" x2="142" y2="142">
      <stop offset="0%" stop-color="#f7df8d"/>
      <stop offset="50%" stop-color="#d4af37"/>
      <stop offset="100%" stop-color="#8d6f18"/>
    </linearGradient>
  </defs>
  <rect width="160" height="160" rx="80" fill="#050505"/>
  <circle cx="80" cy="80" r="76" fill="url(#goldGlow)"/>
  <circle cx="80" cy="80" r="70" fill="none" stroke="url(#goldStroke)" stroke-width="3"/>
  <circle cx="80" cy="80" r="58" fill="none" stroke="#d4af37" stroke-opacity="0.2" stroke-width="1"/>
  <path d="M45 110c22-8 39-26 49-53 2-6 8-10 20-12-8 7-13 15-16 25-7 25-26 41-53 47v-7Z" fill="#d4af37" opacity="0.9"/>
  <path d="M92 59c-10 20-23 35-41 45" fill="none" stroke="#050505" stroke-width="4" stroke-linecap="round" opacity="0.72"/>
  <text x="80" y="83" text-anchor="middle" fill="#f7df8d" font-family="Georgia, 'Times New Roman', serif" font-size="36" font-weight="700" letter-spacing="1">IT'S</text>
  <text x="80" y="104" text-anchor="middle" fill="#ffffff" opacity="0.82" font-family="Arial, sans-serif" font-size="10" font-weight="700" letter-spacing="3">EDITORIAL</text>
</svg>
